<svg width="1024" height="1024" viewBox="0 0 1024 1024" fill="none" xmlns="http://www.w3.org/2000/svg">
<rect width="1024" height="1024" fill="#0247FE"/>
<path d="M247.795 698H163.432L291.977 325.636H393.432L521.795 698H437.432L344.159 410.727H341.25L247.795 698ZM242.523 551.636H441.795V613.091H242.523V551.636ZM566.614 698V325.636H715.705C743.098 325.636 765.947 329.697 784.25 337.818C802.553 345.939 816.311 357.212 825.523 371.636C834.735 385.939 839.341 402.424 839.341 421.091C839.341 435.636 836.432 448.424 830.614 459.455C824.795 470.364 816.795 479.333 806.614 486.364C796.553 493.273 785.038 498.182 772.068 501.091V504.727C786.25 505.333 799.523 509.333 811.886 516.727C824.371 524.121 834.492 534.485 842.25 547.818C850.008 561.03 853.886 576.788 853.886 595.091C853.886 614.848 848.977 632.485 839.159 648C829.462 663.394 815.098 675.576 796.068 684.545C777.038 693.515 753.583 698 725.705 698H566.614ZM645.341 633.636H709.523C731.462 633.636 747.462 629.455 757.523 621.091C767.583 612.606 772.614 601.333 772.614 587.273C772.614 576.97 770.129 567.879 765.159 560C760.189 552.121 753.098 545.939 743.886 541.455C734.795 536.97 723.947 534.727 711.341 534.727H645.341V633.636ZM645.341 481.455H703.705C714.492 481.455 724.068 479.576 732.432 475.818C740.917 471.939 747.583 466.485 752.432 459.455C757.402 452.424 759.886 444 759.886 434.182C759.886 420.727 755.098 409.879 745.523 401.636C736.068 393.394 722.614 389.273 705.159 389.273H645.341V481.455Z" fill="white"/>
</svg>
