<svg width="297" height="297" viewBox="0 0 297 297" fill="none" xmlns="http://www.w3.org/2000/svg">
<g clip-path="url(#clip0_4_77)">
<path d="M147.655 71.797C129.708 71.797 115.107 86.398 115.107 104.345C115.107 122.292 129.708 136.893 147.655 136.893C165.602 136.893 180.203 122.292 180.203 104.345C180.203 86.398 165.603 71.797 147.655 71.797ZM147.655 121.576C138.154 121.576 130.424 113.846 130.424 104.345C130.424 94.844 138.154 87.114 147.655 87.114C157.156 87.114 164.886 94.844 164.886 104.345C164.886 113.846 157.156 121.576 147.655 121.576Z" fill="white"/>
<path d="M245.437 183.301C236.149 169.046 224.97 162.494 219.133 159.855C222.267 139.79 223.319 119.76 220.26 102.66C209.149 40.542 155.333 3.222 153.048 1.663C149.795 -0.553998 145.515 -0.553998 142.262 1.663C139.977 3.221 86.161 40.542 75.051 102.659C71.955 119.971 73.072 140.286 76.297 160.6C70.175 163.643 60.076 170.237 51.563 183.3C35.563 207.855 32.876 242.759 43.578 287.042C44.318 290.107 46.521 292.611 49.466 293.737C50.573 294.16 51.73 294.367 52.882 294.367C54.798 294.367 56.697 293.792 58.318 292.675L104.981 260.494C106.221 263.598 107.037 265.533 107.254 266.043C108.756 269.577 112.225 271.871 116.064 271.871H138.082V287.427C138.082 292.714 142.368 297 147.655 297C152.942 297 157.228 292.714 157.228 287.427V271.871H179.246C183.085 271.871 186.554 269.577 188.056 266.043C188.293 265.485 189.249 263.215 190.693 259.579L238.682 292.675C240.303 293.792 242.203 294.367 244.118 294.367C245.27 294.367 246.428 294.159 247.534 293.737C250.479 292.611 252.681 290.108 253.422 287.042C264.123 242.76 261.437 207.856 245.437 183.301ZM147.655 21.617C153.849 26.649 164.477 36.133 174.778 49.301H120.532C130.835 36.13 141.464 26.647 147.655 21.617ZM59.265 268.765C48.817 211.04 68.632 188.496 80.088 180.533C85.245 204.034 92.36 226.157 98.025 242.034L59.265 268.765ZM172.791 252.725H157.228V176.86C157.228 171.573 152.942 167.287 147.655 167.287C142.368 167.287 138.082 171.573 138.082 176.86V252.725H122.515C113.941 230.991 85.397 153.55 93.897 106.03C96.682 90.461 102.736 76.553 109.948 64.617H185.361C192.573 76.553 198.628 90.461 201.412 106.03C209.901 153.495 181.364 230.978 172.791 252.725ZM237.736 268.765L197.62 241.099C203.308 225.071 210.364 202.956 215.436 179.553C226.546 186.558 248.648 208.471 237.736 268.765Z" fill="white"/>
</g>
<defs>
<clipPath id="clip0_4_77">
<rect width="297" height="297" fill="white"/>
</clipPath>
</defs>
</svg>
